# xmcd
#
# Track frame offsets:
#  150
#  10082
#  20465
#  32230
#  41217
#  52385
#  62565
#  73462
#  83645
#  97087
#  109172
#  126160
#  135785
#  148690
#  158895
#  171012
#  183935
#  200967
#  213845
#  227365
#  237665
#
# Disc length: 3314 seconds
#
# Revision: 3
# Processed by: cddbd v1.5.1PL2 Copyright (c) Steve Scherf et al.
# Submitted via: Collectorz.com_Music_Collector 6.9
#
DISCID=320cf015
DTITLE=Various Artist - I Like Good Bluegrass
DYEAR=2002
DGENRE=Bluegrass
TTITLE0=Wiseman, Mac - I Like Good Bluegrass
TTITLE1=Campbell, Glen - Beautiful Brown Eyes
TTITLE2=Jackson, Carl - Duelin' Banjos
TTITLE3=Maddox, Rose - Uncle Pen
TTITLE4=George Jones and Melba Montgomery - Blue Moon of Kentucky
TTITLE5=Taylor, Earl - We Live in Two Different Worlds
TTITLE6=Brown, Hylo - The Old Home Town
TTITLE7=Jackson, Carl - Sweet Dixie
TTITLE8=Glen Campbell and The Green River Boys - There's More Pretty Girls Than One
TTITLE9=New Grass Revival - Callin' Baton Rouge
TTITLE10=Nitty Gritty Dirt Band - I Saw The Light
TTITLE11=George Jones and Melba Montgomery - Dixieland For Me
TTITLE12=McLean, Don - Mule Skinner Blues
TTITLE13=Jim and Jesse - I Will Always Be Waiting For You
TTITLE14=Country Gazette - Honky Cat
TTITLE15=Nitty Gritty Dirt Band - Sunny Side of The Mountain
TTITLE16=Blue Sky Boys, The - Will The Circle Be Unbroken
TTITLE17=Rose Lee and Joe Maphis with The Blue Ridge Mountain Boys - Flowers on The Sunny Side
TTITLE18=Wiseman, Mac - Freight Train
TTITLE19=Louvin Brothers - Stuck Up Blues
TTITLE20=Blue Sky Boys, The - Corina, Corina
EXTD=
EXTT0=
EXTT1=
EXTT2=
EXTT3=
EXTT4=
EXTT5=
EXTT6=
EXTT7=
EXTT8=
EXTT9=
EXTT10=
EXTT11=
EXTT12=
EXTT13=
EXTT14=
EXTT15=
EXTT16=
EXTT17=
EXTT18=
EXTT19=
EXTT20=
PLAYORDER=
